<svg width="52" height="52" viewBox="0 0 52 52" fill="none" xmlns="http://www.w3.org/2000/svg">
<rect width="52" height="52" rx="26" fill="#70D0A3"/>
<path fill-rule="evenodd" clip-rule="evenodd" d="M32.7104 17.4466C37.7466 18.6465 40.8524 21.7756 41.8275 27.0343C36.2578 26.2339 32.8164 23.3029 31.733 18.0162C31.1703 17.6318 30.5576 17.2707 29.9192 17.0272C29.9355 17.6143 29.9343 18.2306 29.9296 18.8643C30.3595 18.9144 30.7812 18.9925 31.1925 19.0973C32.2538 23.0361 34.6851 25.6258 38.2965 26.9586C39.162 32.7415 34.7002 37.9827 28.8113 37.9827C27.8012 37.9827 26.8285 37.8266 25.9152 37.5377C28.1519 35.6283 29.572 32.7892 29.572 29.6182V28.6303H19.2224C19.2201 28.5499 19.2189 28.4707 19.2189 28.3903C19.2189 23.1491 23.4233 18.89 28.6435 18.8014C28.6587 16.4144 28.6295 14.3326 27.7325 13.4635C27.1256 12.8729 28.0238 11.9491 28.6307 12.5397C29.4182 13.3039 29.7351 14.4922 29.8586 15.9193C30.8849 16.2257 31.8484 16.8198 32.7093 17.4466H32.7104ZM19.1676 29.6182H9.75C9.75 34.8198 13.966 39.0358 19.1676 39.0358C24.3681 39.0358 28.5841 34.8198 28.5841 29.6182H19.1676V29.6182ZM23.3778 32.2452C23.3778 32.2452 25.4515 33.3671 24.3937 33.9845C23.4081 34.56 23.3778 32.2452 23.3778 32.2452ZM19.1502 33.3892C19.1502 33.3892 20.385 35.3976 19.1595 35.4046C18.0178 35.4093 19.1502 33.3892 19.1502 33.3892ZM14.9167 32.2673C14.9167 32.2673 14.9819 34.6241 13.9183 34.0171C12.9269 33.4509 14.9167 32.2673 14.9167 32.2673ZM10.7938 30.1296C10.7938 34.6066 14.7477 38.1924 19.1455 38.1924C23.5328 38.1924 27.5415 34.6369 27.5415 30.1517H26.4755C26.4755 34.0521 22.9491 37.1264 19.1455 37.1264C15.3325 37.1264 11.8609 34.0229 11.8609 30.1296H10.795H10.7938ZM23.3173 21.5717C23.9417 21.3084 24.3413 22.2579 23.7168 22.5212C22.9235 22.8567 22.489 23.8225 22.5321 24.6496C22.567 25.3264 21.5372 25.3789 21.5034 24.702C21.4382 23.4368 22.1197 22.0785 23.3173 21.5717V21.5717Z" fill="white"/>
</svg>
