<svg width="87" height="43" viewBox="0 0 87 43" fill="none" xmlns="http://www.w3.org/2000/svg">
<g clip-path="url(#clip0)">
<path d="M3.32061 27.6064C3.26982 35.4654 10.6865 41.0023 18.064 38.8891C21.1893 37.9946 23.4942 36.1021 25.0724 33.3112C25.4748 32.6003 25.7073 32.53 26.4573 32.864C26.8929 33.0593 27.3402 33.2311 27.7758 33.4245C28.3247 33.6667 28.4341 33.901 28.1665 34.4303C27.3416 36.116 26.1826 37.6164 24.7599 38.8403C21.2342 41.8695 17.1421 43.096 12.5343 42.3695C7.8874 41.6371 4.34804 39.188 1.98651 35.1666C-0.136711 31.534 -0.55276 27.6493 0.669999 23.6436C2.00605 19.2903 4.83832 16.1947 9.0457 14.3881C12.7179 12.812 16.4682 12.7691 20.2029 14.1811C23.7462 15.5229 22.1992 18.6731 19.8825 17.5579C17.4253 16.3942 14.6389 16.1248 12.0042 16.7962C9.36955 17.4677 7.052 19.0378 5.45165 21.2355C4.02184 23.2081 3.30107 25.4326 3.32061 27.6064Z" fill="white"/>
<path d="M29.6802 0C30.2115 3.785 29.8755 7.17159 26.9984 9.84726C25.6994 11.0562 24.0684 11.5464 22.3417 11.7398C20.9002 11.898 19.4352 11.9351 18.0445 12.4136C17.7573 12.5132 17.7046 12.3745 17.7046 12.1226C17.6929 9.09729 18.4371 6.35326 20.7654 4.25569C21.9374 3.19323 23.3926 2.56044 24.8673 2.0175C25.4533 1.80462 26.0393 1.62689 26.6253 1.44135C27.6605 1.10738 28.729 0.863247 29.6802 0Z" fill="white"/>
<path d="M11.1963 5.11499C12.1202 5.73215 13.1691 5.76145 14.1458 6.00363C16.5405 6.58954 17.5718 8.34728 17.1831 10.7964C17.1519 10.9917 17.1167 11.2183 16.812 11.1362C16.0678 10.9409 15.2943 10.9214 14.5364 10.8042C12.6085 10.5034 11.3565 9.17928 11.1104 7.22037C10.9927 6.52021 11.0219 5.80323 11.1963 5.11499Z" fill="white"/>
<path d="M18.691 35.0083V34.3326C18.691 32.153 18.691 29.9734 18.691 27.7938C18.691 25.1181 16.9057 23.2432 14.3664 23.2197C13.8429 23.2197 13.3175 23.2354 12.8038 23.1924C11.458 23.0791 10.3348 21.7159 10.4598 20.1652C12.4541 20.2921 14.468 20.3097 16.4486 20.5851C17.7866 20.7706 18.8746 21.6729 19.8063 22.7119L20.197 23.1455C21.3045 21.7784 22.6171 20.7862 24.2872 20.4835C25.213 20.3136 26.1682 20.3195 27.1136 20.2882C28.059 20.257 28.9614 20.2882 29.8755 20.2882C30.1373 21.6553 28.9145 23.1182 27.4788 23.208C26.7346 23.2568 25.9846 23.208 25.2482 23.3057C24.3099 23.4422 23.4476 23.8985 22.807 24.5974C22.1664 25.2963 21.7867 26.195 21.7323 27.1414C21.6346 28.7429 21.6971 30.3562 21.6717 31.9635C21.6444 33.6392 20.4997 34.9322 18.9645 35.0571C18.8719 35.0503 18.7802 35.034 18.691 35.0083Z" fill="white"/>
<path d="M27.7172 26.2705C27.6899 27.8329 26.8715 29.0575 25.7796 29.1395C25.1545 29.1776 24.5276 29.1776 23.9025 29.1395C23.2833 29.1122 22.877 28.4755 22.8946 27.62C22.9122 26.7646 23.3145 26.2256 23.9318 26.2197C25.094 26.206 26.2542 26.2197 27.4164 26.2197C27.5179 26.2287 27.6185 26.2456 27.7172 26.2705Z" fill="white"/>
<path d="M12.798 26.2216H14.9368C15.5463 26.2216 16.1557 26.2216 16.7632 26.2216C17.3706 26.2216 17.7945 26.8075 17.8218 27.6102C17.8492 28.3797 17.4409 29.0808 16.855 29.1257C16.1405 29.1958 15.4208 29.1958 14.7063 29.1257C13.5695 28.9832 12.7433 27.7 12.798 26.2216Z" fill="white"/>
</g>
<g clip-path="url(#clip1)">
<path d="M32.4073 21.8423H36.8139V22.669H33.3797V25.2562H36.2912V26.0829H33.3797V29.5138H32.4073V21.8423Z" fill="white"/>
<path d="M37.3311 28.041C37.3311 26.8024 38.3962 26.1845 40.8074 25.9193C40.8074 25.1885 40.5629 24.4859 39.6383 24.4859C39.0293 24.5186 38.4432 24.7295 37.9521 25.0926L37.5756 24.4352C38.2302 23.9787 39.0019 23.7211 39.7985 23.6931C41.1812 23.6931 41.7657 24.6157 41.7657 26.0293V29.5138H40.9732L40.8917 28.8366H40.8608C40.3506 29.3195 39.6888 29.6089 38.9891 29.6549C38.0336 29.6549 37.3311 29.0652 37.3311 28.041ZM40.8074 28.1284V26.5513C38.9104 26.7798 38.2781 27.2453 38.2781 27.962C38.2781 28.6053 38.7137 28.8705 39.2702 28.8705C39.8266 28.8705 40.251 28.6137 40.799 28.1284H40.8074Z" fill="white"/>
<path d="M43.5417 23.8342H44.3343L44.4129 24.8669H44.4467C44.8401 24.1474 45.419 23.6932 46.0542 23.6932C46.2619 23.6831 46.4689 23.7228 46.6584 23.8088L46.4813 24.6553C46.3008 24.5918 46.1106 24.5603 45.9193 24.5622C45.4415 24.5622 44.871 24.9092 44.4888 25.8685V29.5167H43.5417V23.8342Z" fill="white"/>
<path d="M47.583 23.8343H48.3727L48.4542 24.6581H48.4879C48.9825 24.1192 49.5727 23.6932 50.2472 23.6932C50.5924 23.6636 50.9371 23.7555 51.2222 23.9532C51.5074 24.1509 51.715 24.442 51.8097 24.7766C52.3971 24.1362 52.9872 23.6932 53.6758 23.6932C54.8392 23.6932 55.3985 24.4663 55.3985 25.9137V29.5139H54.4402V26.0378C54.4402 24.9798 54.1085 24.5283 53.3891 24.5283C52.9479 24.5283 52.4926 24.8105 51.9699 25.4002V29.5139H51.0116V26.0378C51.0116 24.9798 50.68 24.5283 49.9577 24.5283C49.5334 24.5283 49.064 24.8105 48.5526 25.4002V29.5139H47.5942L47.583 23.8343Z" fill="white"/>
<path d="M59.4481 21.9185H64.3858V23.6113H61.4519V25.0503H63.9643V26.7431H61.4519V29.5251H59.4481V21.9185Z" fill="white"/>
<path d="M65.2936 23.6705H66.9236L67.0641 24.675H67.1203C67.5531 23.8821 68.2051 23.5295 68.7755 23.5295C69.022 23.5169 69.2682 23.5573 69.4978 23.648L69.1718 25.3775C68.9591 25.3199 68.7401 25.2886 68.5198 25.2844C68.0983 25.2844 67.5868 25.5412 67.3086 26.2663V29.5138H65.2936V23.6705Z" fill="white"/>
<path d="M69.7423 26.5936C69.7423 24.7004 71.1166 23.5295 72.5358 23.5295C74.2585 23.5295 75.065 24.7936 75.065 26.351C75.0674 26.6352 75.0401 26.9189 74.9835 27.1974H71.6674C71.8528 27.9 72.3643 28.1342 73.0163 28.1342C73.4365 28.1235 73.8466 28.0019 74.2051 27.7815L74.8571 28.975C74.2303 29.4005 73.4946 29.6357 72.7381 29.6521C71.0547 29.6549 69.7423 28.532 69.7423 26.5936ZM73.376 25.8967C73.376 25.4538 73.1877 25.0503 72.5835 25.0503C72.3502 25.0466 72.1241 25.1319 71.9509 25.289C71.7778 25.4461 71.6704 25.6633 71.6505 25.8967H73.376Z" fill="white"/>
<path d="M75.703 28.8367L76.5883 27.5981C76.9893 27.9381 77.4869 28.1424 78.0103 28.1821C78.429 28.1821 78.592 28.0664 78.592 27.8323C78.592 27.5275 78.0552 27.3865 77.4679 27.1551C76.7934 26.873 76.0009 26.382 76.0009 25.4227C76.0009 24.2772 76.9339 23.5295 78.3053 23.5295C79.0867 23.5361 79.8426 23.8087 80.4496 24.3026L79.5644 25.4933C79.2264 25.2131 78.8121 25.042 78.3756 25.0024C78.0384 25.0024 77.8641 25.0983 77.8641 25.3296C77.8641 25.6344 78.3756 25.75 78.9573 25.9616C79.6571 26.2184 80.4496 26.6642 80.4496 27.7138C80.4496 28.8141 79.5868 29.6549 77.9569 29.6549C77.1385 29.6272 76.3498 29.3408 75.703 28.8367Z" fill="white"/>
<path d="M81.4332 21.3823H83.437V23.2755L83.3414 24.28C83.8092 23.8182 84.4337 23.5511 85.0894 23.5323C86.3709 23.5323 86.9049 24.469 86.9049 25.9164V29.5166H84.904V26.1788C84.904 25.4283 84.7157 25.2421 84.3194 25.2421C83.9232 25.2421 83.7377 25.4057 83.437 25.6879V29.5194H81.4332V21.3823Z" fill="white"/>
</g>
<defs>
<clipPath id="clip0">
<rect width="29.8892" height="42.5745" fill="white"/>
</clipPath>
<clipPath id="clip1">
<rect width="54.4975" height="8.27534" fill="white" transform="translate(32.5024 21.2872)"/>
</clipPath>
</defs>
</svg>
