<svg width="52" height="51" viewBox="0 0 52 51" fill="none" xmlns="http://www.w3.org/2000/svg">
<rect x="0.5" width="51" height="51" rx="25.5" fill="#70D0A3"/>
<path d="M33.3609 12.1125C31.5935 12.1156 30.023 12.989 29.3852 14.2563C28.208 14.0614 26.8058 14.2054 25.6328 14.8794C27.3392 16.3544 27.7202 19.1184 27.4292 21.0996C27.9349 21.8713 28.2671 22.7498 28.3434 23.6658C29.0156 24.0403 29.6888 24.4536 30.2781 24.5212L30.4801 21.3213C29.3183 20.9309 28.5667 19.7795 27.8864 19.1036C29.1362 19.8205 29.4701 20.1907 30.5439 20.2547C30.7608 18.4477 31.8749 16.0501 32.9251 14.721C32.532 15.8752 32.1331 17.0355 32.2447 18.7551L34.9661 18.3749L32.1809 19.8217C31.6999 20.6495 31.5544 21.3846 31.49 22.4513C32.4757 22.1889 33.9607 22.4948 35.2105 23.2117C33.7201 22.9087 32.3239 22.9292 31.4262 23.518C31.2092 25.325 31.3172 27.0423 32.0215 29.6537C31.3408 28.4354 30.6546 27.2199 30.2144 25.5878C29.5857 25.2272 28.9147 24.6862 28.3647 24.0566C28.3647 24.7899 28.0472 25.5323 27.5781 26.2743C27.3197 26.6829 26.9911 27.0698 26.632 27.4359C26.8336 27.5614 27.045 27.6827 27.2592 27.8056C27.5662 28.7384 28.0716 29.678 28.7261 30.4668C28.1439 31.7308 27.7155 32.9935 27.4293 34.2475C26.6376 32.8741 25.729 31.5929 24.7398 30.4668C25.1106 29.6001 25.3032 28.6508 25.3032 27.7527C26.6627 26.7633 27.6844 25.0743 27.6844 24.0566C27.6844 23.0388 27.3464 22.0335 26.7383 21.2157C27.0063 19.668 27.004 17.9802 25.9836 16.2839C24.2827 13.9091 21.9016 13.9183 19.8606 14.9322C19.0102 14.2536 17.8196 13.6642 16.5014 13.6227C15.1833 13.5811 13.7376 14.0873 12.3769 15.6081C11.0163 17.6357 11.771 19.1709 12.4513 20.8672C10.4104 21.885 9.99782 23.7153 10.0702 25.9575C9.99782 28.4465 13.0573 30.1289 15.4384 30.1289C16.1187 32.1644 19.1802 34.1947 21.5614 33.5189C22.3299 33.3007 22.9942 32.8673 23.5386 32.3044C25.0774 34.057 26.3523 36.3075 27.004 38.25L29.1195 37.817C28.7715 35.9454 29.6603 33.2303 30.3526 31.8819C31.0521 32.2142 31.7957 32.4957 32.4467 32.505C34.8279 32.505 37.2128 29.7993 37.3366 27.5521C39.594 26.7579 41.6312 24.3945 41.6312 22.3669C41.6312 20.3392 40.2722 18.6512 37.9106 18.0159C38.2312 16.2856 37.8846 14.255 36.5925 13.1474C35.5463 12.4222 34.4213 12.1106 33.3609 12.1125V12.1125ZM16.5333 16.5268C17.894 17.5407 19.5948 19.5683 20.2751 21.258C21.2956 20.92 21.976 20.5821 22.9965 19.5683C22.3161 20.5821 21.6358 21.5959 20.6153 22.2718L21.6358 25.3133C22.3161 25.0458 22.9965 24.232 23.6768 23.6236C23.3366 24.6374 22.6563 25.6512 21.976 26.327C21.976 28.0167 21.6358 29.3685 21.2956 30.7203C21.2956 28.0168 20.9555 26.3271 20.2751 24.6374C19.2546 24.2994 17.894 24.6374 16.5333 25.3133C17.5538 24.2994 18.9145 23.6236 19.935 23.6236C19.5948 22.6097 19.2546 21.9338 18.5743 21.258L15.5128 20.5821L18.2342 20.2442C17.894 18.5545 17.2137 17.5407 16.5333 16.5268V16.5268Z" fill="white"/>
</svg>
